<?xml version="1.0" encoding="iso-8859-1"?>
<!-- Generator: Adobe Illustrator 19.0.0, SVG Export Plug-In . SVG Version: 6.00 Build 0)  -->
<svg version="1.1" id="Capa_1" xmlns="http://www.w3.org/2000/svg" xmlns:xlink="http://www.w3.org/1999/xlink" x="0px" y="0px"
	 viewBox="0 0 512 512" style="enable-background:new 0 0 512 512;" xml:space="preserve">
<path style="fill:#EF8C33;" d="M507.881,25.761l-180.352,188.83l12.002,12.002c0,0-53.498,32.629-71.569,52.067l-95.267,101.369
	l-25.317-36.069l2.482-15.473l19.302-17.945c18.565-18.565,32.765-54.949,32.765-54.949l12.685,12.685L489.78,7.585
	c2.482-2.346,5.648-3.524,8.825-3.524c3.292,0,6.574,1.262,9.078,3.766c0.231,0.231,0.452,0.473,0.663,0.715
	C512.604,13.496,512.478,20.954,507.881,25.761z"/>
<g>
	<path style="fill:#F9D366;" d="M180.426,169.546c-4.357,0-7.889-3.532-7.889-7.889v-20.906c0-4.357,3.532-7.889,7.889-7.889
		s7.889,3.532,7.889,7.889v20.906C188.315,166.014,184.783,169.546,180.426,169.546z"/>
	<path style="fill:#F9D366;" d="M180.426,225.83c-4.357,0-7.889-3.532-7.889-7.889v-20.906c0-4.357,3.532-7.889,7.889-7.889
		s7.889,3.532,7.889,7.889v20.906C188.315,222.298,184.783,225.83,180.426,225.83z"/>
	<path style="fill:#F9D366;" d="M219.02,187.236h-20.906c-4.357,0-7.889-3.532-7.889-7.889s3.532-7.889,7.889-7.889h20.906
		c4.357,0,7.889,3.532,7.889,7.889S223.377,187.236,219.02,187.236z"/>
	<path style="fill:#F9D366;" d="M162.737,187.236h-20.906c-4.357,0-7.889-3.532-7.889-7.889s3.532-7.889,7.889-7.889h20.906
		c4.357,0,7.889,3.532,7.889,7.889S167.094,187.236,162.737,187.236z"/>
	<path style="fill:#F9D366;" d="M331.367,89.49l19.534-3.96c9.223-1.87,9.223-15.05,0-16.919l-19.534-3.96
		c-19.25-3.902-34.295-18.948-38.198-38.198l-3.96-19.535c-1.87-9.223-15.05-9.223-16.919,0l-3.96,19.534
		c-3.902,19.25-18.948,34.295-38.198,38.198l-19.534,3.96c-9.223,1.87-9.223,15.05,0,16.919l19.534,3.96
		c19.25,3.902,34.295,18.948,38.198,38.198l3.96,19.534c1.87,9.223,15.05,9.223,16.919,0l3.96-19.534
		C297.072,108.437,312.117,93.393,331.367,89.49z"/>
	<path style="fill:#F9D366;" d="M464.57,287.03l16.274-3.3c7.683-1.558,7.683-12.538,0-14.096l-16.274-3.3
		c-16.038-3.251-28.572-15.785-31.823-31.823l-3.3-16.274c-1.558-7.683-12.538-7.683-14.096,0l-3.3,16.274
		c-3.251,16.038-15.785,28.572-31.823,31.823l-16.274,3.3c-7.683,1.558-7.683,12.538,0,14.096l16.274,3.3
		c16.038,3.251,28.572,15.785,31.823,31.823l3.3,16.274c1.558,7.683,12.538,7.683,14.096,0l3.3-16.274
		C435.998,302.816,448.533,290.282,464.57,287.03z"/>
</g>
<path style="fill:#EF8C33;" d="M193,371.629c-41.769,33.46-80.467,70.548-115.642,110.814c-3.471,3.976-6.911,7.973-10.308,12.012
	C62.17,500.24,57.363,506.089,52.629,512L0.562,459.933C43.415,425.6,83.028,387.46,118.928,345.974
	c3.461-3.987,6.879-8.015,10.256-12.065c3.966-4.744,7.889-9.519,11.749-14.347L193,371.629z"/>
<g>
	<path style="fill:#D87625;" d="M157.24,335.865c-5.435-5.435-10.869-10.869-16.304-16.304
		C99.437,371.36,52.363,418.435,0.563,459.934c5.435,5.435,10.869,10.869,16.304,16.304
		C68.667,434.739,115.741,387.664,157.24,335.865z"/>
	<path style="fill:#D87625;" d="M508.344,8.542L238.626,273.475l-73.294,70.485l-15.473-15.473l19.302-17.945
		c18.565-18.565,32.765-54.949,32.765-54.949l12.685,12.685L489.779,7.585c2.482-2.346,5.648-3.524,8.825-3.524
		c3.292,0,6.574,1.262,9.078,3.766C507.913,8.058,508.134,8.3,508.344,8.542z"/>
	<path style="fill:#D87625;" d="M158.383,374.259c-1.546,1.546-3.566,2.314-5.585,2.314s-4.039-0.768-5.575-2.314l-28.295-28.285
		c3.461-3.987,6.879-8.015,10.256-12.065l29.2,29.2C161.465,366.191,161.465,371.187,158.383,374.259z"/>
	<path style="fill:#D87625;" d="M77.359,482.443c-3.471,3.976-6.911,7.973-10.308,12.012l-26.707-26.707
		c-3.082-3.082-3.082-8.068,0-11.15s8.078-3.082,11.16,0L77.359,482.443z"/>
</g>
<g>
</g>
<g>
</g>
<g>
</g>
<g>
</g>
<g>
</g>
<g>
</g>
<g>
</g>
<g>
</g>
<g>
</g>
<g>
</g>
<g>
</g>
<g>
</g>
<g>
</g>
<g>
</g>
<g>
</g>
</svg>
